<svg width="121" height="48" viewBox="0 0 121 48" fill="none" xmlns="http://www.w3.org/2000/svg">
<g filter="url(#filter0_d_1_7)">
<path d="M7.78 0.999999H12.25L15.67 22H12.37L11.77 17.83V17.89H8.02L7.42 22H4.36L7.78 0.999999ZM11.38 15.04L9.91 4.66H9.85L8.41 15.04H11.38ZM17.271 0.999999H20.571V19H26.001V22H17.271V0.999999ZM30.2507 0.999999H34.7207L38.1407 22H34.8407L34.2407 17.83V17.89H30.4907L29.8907 22H26.8307L30.2507 0.999999ZM33.8507 15.04L32.3807 4.66H32.3207L30.8807 15.04H33.8507ZM39.7417 0.999999H43.8817L47.0917 13.57H47.1517V0.999999H50.0917V22H46.7017L42.7417 6.67H42.6817V22H39.7417V0.999999ZM57.3491 0.999999H62.3291C64.0291 0.999999 65.2691 1.4 66.0491 2.2C66.8291 2.98 67.2191 4.19 67.2191 5.83V6.67C67.2191 7.75 67.0391 8.63 66.6791 9.31C66.3391 9.99 65.8091 10.48 65.0891 10.78V10.84C66.7291 11.4 67.5491 12.86 67.5491 15.22V17.02C67.5491 18.64 67.1191 19.88 66.2591 20.74C65.4191 21.58 64.1791 22 62.5391 22H57.3491V0.999999ZM61.9391 9.55C62.5991 9.55 63.0891 9.38 63.4091 9.04C63.7491 8.7 63.9191 8.13 63.9191 7.33V6.16C63.9191 5.4 63.7791 4.85 63.4991 4.51C63.2391 4.17 62.8191 4 62.2391 4H60.6491V9.55H61.9391ZM62.5391 19C63.1191 19 63.5491 18.85 63.8291 18.55C64.1091 18.23 64.2491 17.69 64.2491 16.93V15.1C64.2491 14.14 64.0791 13.48 63.7391 13.12C63.4191 12.74 62.8791 12.55 62.1191 12.55H60.6491V19H62.5391ZM69.478 0.999999H74.368C76.068 0.999999 77.308 1.4 78.088 2.2C78.868 2.98 79.258 4.19 79.258 5.83V7.12C79.258 9.3 78.538 10.68 77.098 11.26V11.32C77.898 11.56 78.458 12.05 78.778 12.79C79.118 13.53 79.288 14.52 79.288 15.76V19.45C79.288 20.05 79.308 20.54 79.348 20.92C79.388 21.28 79.488 21.64 79.648 22H76.288C76.168 21.66 76.088 21.34 76.048 21.04C76.008 20.74 75.988 20.2 75.988 19.42V15.58C75.988 14.62 75.828 13.95 75.508 13.57C75.208 13.19 74.678 13 73.918 13H72.778V22H69.478V0.999999ZM73.978 10C74.638 10 75.128 9.83 75.448 9.49C75.788 9.15 75.958 8.58 75.958 7.78V6.16C75.958 5.4 75.818 4.85 75.538 4.51C75.278 4.17 74.858 4 74.278 4H72.778V10H73.978ZM86.3777 22.3C84.7777 22.3 83.5577 21.85 82.7177 20.95C81.8777 20.03 81.4577 18.72 81.4577 17.02V0.999999H84.7577V17.26C84.7577 17.98 84.8977 18.5 85.1777 18.82C85.4777 19.14 85.8977 19.3 86.4377 19.3C86.9777 19.3 87.3877 19.14 87.6677 18.82C87.9677 18.5 88.1177 17.98 88.1177 17.26V0.999999H91.2977V17.02C91.2977 18.72 90.8777 20.03 90.0377 20.95C89.1977 21.85 87.9777 22.3 86.3777 22.3ZM93.648 0.999999H97.788L100.998 13.57H101.058V0.999999H103.998V22H100.608L96.648 6.67H96.588V22H93.648V0.999999ZM111.221 22.3C109.601 22.3 108.361 21.84 107.501 20.92C106.641 20 106.211 18.7 106.211 17.02V5.98C106.211 4.3 106.641 3 107.501 2.08C108.361 1.16 109.601 0.699999 111.221 0.699999C112.841 0.699999 114.081 1.16 114.941 2.08C115.801 3 116.231 4.3 116.231 5.98V17.02C116.231 18.7 115.801 20 114.941 20.92C114.081 21.84 112.841 22.3 111.221 22.3ZM111.221 19.3C112.361 19.3 112.931 18.61 112.931 17.23V5.77C112.931 4.39 112.361 3.7 111.221 3.7C110.081 3.7 109.511 4.39 109.511 5.77V17.23C109.511 18.61 110.081 19.3 111.221 19.3ZM4.574 29.2H8.648V30.6H6.114V33.33H8.102V34.73H6.114V39H4.574V29.2ZM9.3865 29.2H11.6685C12.4618 29.2 13.0405 29.3867 13.4045 29.76C13.7685 30.124 13.9505 30.6887 13.9505 31.454V32.056C13.9505 33.0733 13.6145 33.7173 12.9425 33.988V34.016C13.3158 34.128 13.5772 34.3567 13.7265 34.702C13.8852 35.0473 13.9645 35.5093 13.9645 36.088V37.81C13.9645 38.09 13.9738 38.3187 13.9925 38.496C14.0112 38.664 14.0578 38.832 14.1325 39H12.5645C12.5085 38.8413 12.4712 38.692 12.4525 38.552C12.4338 38.412 12.4245 38.16 12.4245 37.796V36.004C12.4245 35.556 12.3498 35.2433 12.2005 35.066C12.0605 34.8887 11.8132 34.8 11.4585 34.8H10.9265V39H9.3865V29.2ZM11.4865 33.4C11.7945 33.4 12.0232 33.3207 12.1725 33.162C12.3312 33.0033 12.4105 32.7373 12.4105 32.364V31.608C12.4105 31.2533 12.3452 30.9967 12.2145 30.838C12.0932 30.6793 11.8972 30.6 11.6265 30.6H10.9265V33.4H11.4865ZM17.259 39.14C16.503 39.14 15.9243 38.9253 15.523 38.496C15.1217 38.0667 14.921 37.46 14.921 36.676V31.524C14.921 30.74 15.1217 30.1333 15.523 29.704C15.9243 29.2747 16.503 29.06 17.259 29.06C18.015 29.06 18.5937 29.2747 18.995 29.704C19.3963 30.1333 19.597 30.74 19.597 31.524V36.676C19.597 37.46 19.3963 38.0667 18.995 38.496C18.5937 38.9253 18.015 39.14 17.259 39.14ZM17.259 37.74C17.791 37.74 18.057 37.418 18.057 36.774V31.426C18.057 30.782 17.791 30.46 17.259 30.46C16.727 30.46 16.461 30.782 16.461 31.426V36.774C16.461 37.418 16.727 37.74 17.259 37.74ZM20.6385 29.2H22.5705L24.0685 35.066H24.0965V29.2H25.4685V39H23.8865L22.0385 31.846H22.0105V39H20.6385V29.2ZM27.8171 30.6H26.2071V29.2H30.9671V30.6H29.3571V39H27.8171V30.6ZM30.4633 33.4H33.5433V34.8H30.4633V33.4ZM34.4607 29.2H38.6607V30.6H36.0007V33.19H38.1147V34.59H36.0007V37.6H38.6607V39H34.4607V29.2ZM39.5467 29.2H41.4787L42.9767 35.066H43.0047V29.2H44.3767V39H42.7947L40.9467 31.846H40.9187V39H39.5467V29.2ZM45.5213 29.2H47.8733C48.6386 29.2 49.2126 29.4053 49.5953 29.816C49.9779 30.2267 50.1693 30.8287 50.1693 31.622V36.578C50.1693 37.3713 49.9779 37.9733 49.5953 38.384C49.2126 38.7947 48.6386 39 47.8733 39H45.5213V29.2ZM47.8453 37.6C48.0973 37.6 48.2886 37.5253 48.4193 37.376C48.5593 37.2267 48.6293 36.984 48.6293 36.648V31.552C48.6293 31.216 48.5593 30.9733 48.4193 30.824C48.2886 30.6747 48.0973 30.6 47.8453 30.6H47.0613V37.6H47.8453ZM53.451 29.2H55.803C56.5683 29.2 57.1423 29.4053 57.525 29.816C57.9076 30.2267 58.099 30.8287 58.099 31.622V36.578C58.099 37.3713 57.9076 37.9733 57.525 38.384C57.1423 38.7947 56.5683 39 55.803 39H53.451V29.2ZM55.775 37.6C56.027 37.6 56.2183 37.5253 56.349 37.376C56.489 37.2267 56.559 36.984 56.559 36.648V31.552C56.559 31.216 56.489 30.9733 56.349 30.824C56.2183 30.6747 56.027 30.6 55.775 30.6H54.991V37.6H55.775ZM59.1385 29.2H63.3385V30.6H60.6785V33.19H62.7925V34.59H60.6785V37.6H63.3385V39H59.1385V29.2ZM63.8184 29.2H65.3724L66.3804 36.802H66.4084L67.4164 29.2H68.8304L67.3464 39H65.3024L63.8184 29.2ZM69.5701 29.2H73.7701V30.6H71.1101V33.19H73.2241V34.59H71.1101V37.6H73.7701V39H69.5701V29.2ZM74.656 29.2H76.196V37.6H78.73V39H74.656V29.2ZM81.6398 39.14C80.8838 39.14 80.3052 38.9253 79.9038 38.496C79.5025 38.0667 79.3018 37.46 79.3018 36.676V31.524C79.3018 30.74 79.5025 30.1333 79.9038 29.704C80.3052 29.2747 80.8838 29.06 81.6398 29.06C82.3958 29.06 82.9745 29.2747 83.3758 29.704C83.7772 30.1333 83.9778 30.74 83.9778 31.524V36.676C83.9778 37.46 83.7772 38.0667 83.3758 38.496C82.9745 38.9253 82.3958 39.14 81.6398 39.14ZM81.6398 37.74C82.1718 37.74 82.4378 37.418 82.4378 36.774V31.426C82.4378 30.782 82.1718 30.46 81.6398 30.46C81.1078 30.46 80.8418 30.782 80.8418 31.426V36.774C80.8418 37.418 81.1078 37.74 81.6398 37.74ZM85.0193 29.2H87.2873C88.0526 29.2 88.6266 29.4053 89.0093 29.816C89.392 30.2267 89.5833 30.8287 89.5833 31.622V32.588C89.5833 33.3813 89.392 33.9833 89.0093 34.394C88.6266 34.8047 88.0526 35.01 87.2873 35.01H86.5593V39H85.0193V29.2ZM87.2873 33.61C87.5393 33.61 87.726 33.54 87.8473 33.4C87.978 33.26 88.0433 33.022 88.0433 32.686V31.524C88.0433 31.188 87.978 30.95 87.8473 30.81C87.726 30.67 87.5393 30.6 87.2873 30.6H86.5593V33.61H87.2873ZM90.4197 29.2H94.6197V30.6H91.9597V33.19H94.0737V34.59H91.9597V37.6H94.6197V39H90.4197V29.2ZM95.5056 29.2H97.7876C98.581 29.2 99.1596 29.3867 99.5236 29.76C99.8876 30.124 100.07 30.6887 100.07 31.454V32.056C100.07 33.0733 99.7336 33.7173 99.0616 33.988V34.016C99.435 34.128 99.6963 34.3567 99.8456 34.702C100.004 35.0473 100.084 35.5093 100.084 36.088V37.81C100.084 38.09 100.093 38.3187 100.112 38.496C100.13 38.664 100.177 38.832 100.252 39H98.6836C98.6276 38.8413 98.5903 38.692 98.5716 38.552C98.553 38.412 98.5436 38.16 98.5436 37.796V36.004C98.5436 35.556 98.469 35.2433 98.3196 35.066C98.1796 34.8887 97.9323 34.8 97.5776 34.8H97.0456V39H95.5056V29.2ZM97.6056 33.4C97.9136 33.4 98.1423 33.3207 98.2916 33.162C98.4503 33.0033 98.5296 32.7373 98.5296 32.364V31.608C98.5296 31.2533 98.4643 30.9967 98.3336 30.838C98.2123 30.6793 98.0163 30.6 97.7456 30.6H97.0456V33.4H97.6056Z" fill="white"/>
</g>
<defs>
<filter id="filter0_d_1_7" x="0.359985" y="0.700012" width="119.871" height="46.44" filterUnits="userSpaceOnUse" color-interpolation-filters="sRGB">
<feFlood flood-opacity="0" result="BackgroundImageFix"/>
<feColorMatrix in="SourceAlpha" type="matrix" values="0 0 0 0 0 0 0 0 0 0 0 0 0 0 0 0 0 0 127 0" result="hardAlpha"/>
<feOffset dy="4"/>
<feGaussianBlur stdDeviation="2"/>
<feComposite in2="hardAlpha" operator="out"/>
<feColorMatrix type="matrix" values="0 0 0 0 0 0 0 0 0 0 0 0 0 0 0 0 0 0 0.25 0"/>
<feBlend mode="normal" in2="BackgroundImageFix" result="effect1_dropShadow_1_7"/>
<feBlend mode="normal" in="SourceGraphic" in2="effect1_dropShadow_1_7" result="shape"/>
</filter>
</defs>
</svg>
